<svg version="1.0" xmlns="http://www.w3.org/2000/svg" viewBox="0 0 128 128">
  <path d="M85 9.9c0 2.5 1.9 3 9.4 2.7 8.1-.3 9.3 1.2 9.4 10.6 0 7.3.8 9.3 3.4 8.3 1.2-.5 1.5-2.3 1.3-8.8-.1-4.5-.5-8.9-.9-9.8-1.5-3.3-6.2-4.9-14.5-4.9-7.3 0-8.1.2-8.1 1.9zM44 28c-2.2 2.2-2.1-.4-2 39.5 0 23.1.1 24.1 2.1 25.7C46 94.8 48.6 95 66.4 95c22.5 0 24.6-.5 24.6-6 0-5.2-2.6-6-19.1-6H57.2l-.4-6.9C56.3 65.2 55.2 66 70.9 66c15.4 0 18.1-.9 18.1-6s-2.7-6-18.1-6H57.2l-.4-5.8c-.6-11-1.8-10.2 15-10.2 16.6 0 19.2-.8 19.2-6 0-5.5-2.1-6-24.7-6-19 0-20.4.1-22.3 2zM20.5 99.2c-.3 1.3-.4 5.5-.2 9.3.3 6.1.7 7.1 3.3 9.5 2.7 2.3 3.9 2.6 11.2 2.8 6.8.2 8.4-.1 8.9-1.4.6-1.7-1.3-3.5-3.7-3.3-4.5.4-11.7-.3-13-1.1-1.1-.6-1.6-3.3-2-9.2-.4-6.8-.8-8.3-2.2-8.6-1.1-.2-1.9.5-2.3 2z"/>
</svg>
