<svg xmlns="http://www.w3.org/2000/svg" viewBox="0 0 80 20">
  <path fill="currentColor" fill-rule="evenodd" d="M6.378 1.766a.74.74 0 0 0-.743-.74h-1.76a.74.74 0 0 0-.742.74V3.52a.74.74 0 0 1-.742.74H.742A.74.74 0 0 0 0 5v10.805c0 .409.332.74.742.74h1.76c.41 0 .743-.331.743-.74V5a.74.74 0 0 1 .742-.74h1.648c.41 0 .743-.331.743-.74zm6.489 0a.74.74 0 0 0-.743-.74h-1.76a.74.74 0 0 0-.742.74V3.52c0 .409.333.74.743.74h1.648a.74.74 0 0 1 .742.74v10.805c0 .409.333.74.743.74h1.76a.74.74 0 0 0 .742-.74V5a.74.74 0 0 0-.742-.74h-1.649a.74.74 0 0 1-.742-.74zM9.622 7.955a.74.74 0 0 0-.742-.74H7.12a.74.74 0 0 0-.742.74v4.801c0 .409.332.74.742.74h1.76a.74.74 0 0 0 .742-.74z" clip-rule="evenodd"/>
  <path fill="currentColor" d="M28.096 3.552v8.496c0 .312-.248.56-.56.56s-.56-.248-.56-.56V8.216H21.12v3.84c0 .312-.248.56-.56.56s-.56-.248-.56-.56V3.552c0-.312.248-.56.56-.56s.56.248.56.56V7.24h5.848V3.552c0-.312.248-.56.56-.56s.56.248.56.56zM35.64 5.6a.57.57 0 0 0-.568.568v.336c-1.424-1.312-3.64-1.224-4.96.2s-1.224 3.64.2 4.96a3.5 3.5 0 0 0 4.752 0v.328a.576.576 0 0 0 .544.592.576.576 0 0 0 .592-.544V6.176a.56.56 0 0 0-.56-.576m-.568 3.488a2.368 2.368 0 1 1-2.368-2.368 2.36 2.36 0 0 1 2.368 2.368m6.672-2.944a.57.57 0 0 1-.568.568h-.072a2.37 2.37 0 0 0-2.368 2.368c-.032.12-.016 1.92-.008 2.984a.566.566 0 0 1-.632.488h-.016a.59.59 0 0 1-.48-.592V6.168a.57.57 0 0 1 .568-.568h.032a.58.58 0 0 1 .536.6v.304a3.47 3.47 0 0 1 2.368-.928h.072a.57.57 0 0 1 .568.568m10.632 2.64v3.208a.57.57 0 0 1-.568.568.57.57 0 0 1-.568-.568V8.296c.024-.88-.672-1.6-1.552-1.624s-1.6.672-1.624 1.552v3.768a.576.576 0 0 1-.544.592.576.576 0 0 1-.592-.544V8.304c.024-.88-.672-1.6-1.552-1.624s-1.6.672-1.624 1.552V12a.576.576 0 0 1-.544.592.576.576 0 0 1-.592-.544V6.184c0-.312.248-.568.56-.576a.57.57 0 0 1 .568.496 2.72 2.72 0 0 1 3.752.552 2.725 2.725 0 0 1 3.816-.504 2.72 2.72 0 0 1 1.064 2.168zm4.352-3.208c-1.936 0-3.504 1.576-3.504 3.512s1.576 3.504 3.512 3.504 3.504-1.568 3.504-3.504a3.506 3.506 0 0 0-3.512-3.512m2.368 3.504a2.368 2.368 0 1 1-2.36-2.368 2.366 2.366 0 0 1 2.36 2.368M67 8.52V12a.57.57 0 0 1-.568.568.57.57 0 0 1-.568-.568V8.52c0-.984-.8-1.776-1.776-1.776q-.06-.002-.12.008c-.944.064-1.656.888-1.656 1.832V12a.57.57 0 0 1-.568.568.57.57 0 0 1-.568-.568V6.168a.57.57 0 0 1 .568-.568.57.57 0 0 1 .568.568v.056a2.78 2.78 0 0 1 1.632-.616A2.92 2.92 0 0 1 67 8.368zm6.944-2.096-3.832 8.288a.584.584 0 0 1-.792.2.575.575 0 0 1-.248-.68L70.104 12 67.52 6.424c-.168-.272-.08-.632.192-.792s.632-.08.792.192c0 0 0 .008.008.008.024.032.04.072.048.104l2.168 4.688 2.168-4.688a.58.58 0 0 1 .728-.368.58.58 0 0 1 .368.728.4.4 0 0 1-.048.128"/>
</svg>
