<svg version="1.1" id="logo" xmlns="http://www.w3.org/2000/svg" x="0" y="0" viewBox="30 30 1300 250" style="enable-background:new 30 30 1300 250;padding:0;margin:0" xml:space="preserve">
  <style>
    .st1{fill:#555b68}
  </style>
  <linearGradient id="SVGID_1_" gradientUnits="userSpaceOnUse" x1="71.37" y1="73.37" x2="228.63" y2="230.63" gradientTransform="matrix(1 0 0 -1 0 302)">
    <stop offset="0" style="stop-color:#00aee9"/>
    <stop offset="1" style="stop-color:#69fabd"/>
  </linearGradient>
  <path d="M201.2 60c-21.4 0-38.8 17.3-38.8 38.7v42.9c-4 .3-8.1.4-12.3.4s-8.3.2-12.3.4V98.7c-.3-21.4-18-38.6-39.5-38.2-21 .3-37.9 17.2-38.2 38.2v102.6c.3 21.4 18 38.6 39.5 38.2 21-.3 37.9-17.2 38.2-38.2v-42.9c4-.3 8.1-.4 12.3-.4s8.3-.2 12.3-.4v43.8c.3 21.4 18 38.6 39.5 38.2 21-.3 37.9-17.2 38.2-38.2V98.7c-.2-21.4-17.5-38.7-38.9-38.7zM98.8 75.9c12.6 0 22.9 10.2 22.9 22.8v45.5c-11.4 1.6-22.5 4.8-33 9.3-4.6 2-8.9 4.6-12.8 7.6V98.7c.1-12.6 10.3-22.8 22.9-22.8zm23 125.4c0 12.7-10.3 22.9-22.9 22.9-12.7 0-22.9-10.3-22.9-22.9V191c0-9.1 7.2-17.7 19.3-23.1 8.5-3.7 17.4-6.3 26.6-7.8l-.1 41.2zm79.4 22.8c-12.6 0-22.9-10.2-22.9-22.9v-45.5c11.4-1.6 22.5-4.8 33-9.3 4.6-2 8.9-4.6 12.8-7.6v62.4c-.1 12.7-10.3 22.9-22.9 22.9zm3.6-92.1c-8.5 3.7-17.4 6.3-26.6 7.8V98.7c0-12.7 10.3-22.9 22.9-22.9 12.7 0 22.9 10.3 22.9 22.9V109c.1 9.1-7.1 17.7-19.2 23z" style="fill:url(#SVGID_1_)"/>
  <path fill="currentColor" d="M759.1 122.2c-24.2 0-43.8 19.7-43.8 43.9s19.7 43.8 43.9 43.8 43.8-19.6 43.8-43.8c0-24.3-19.6-43.9-43.9-43.9zm29.6 43.8c0 16.4-13.3 29.6-29.6 29.6-16.4 0-29.6-13.3-29.6-29.6 0-16.4 13.3-29.6 29.7-29.6 16.3 0 29.5 13.3 29.5 29.6zM495.5 122.5c-3.9 0-7.1 3.2-7.1 7.1v4.2c-17.8-16.4-45.5-15.3-62 2.5s-15.3 45.5 2.5 62c16.8 15.5 42.7 15.5 59.4 0v4.1c-.1 3.9 2.9 7.2 6.8 7.4 3.9.1 7.2-2.9 7.4-6.8v-73.3c.1-4-3.1-7.2-7-7.2zm-7.1 43.6c0 16.4-13.3 29.6-29.6 29.6-16.4 0-29.6-13.3-29.6-29.6 0-16.4 13.3-29.6 29.6-29.6 16.3-.1 29.6 13.1 29.6 29.6zM571.8 129.3c0 3.9-3.2 7.1-7.1 7.1h-.9c-16.3 0-29.6 13.2-29.6 29.6-.4 1.5-.2 24-.1 37.3-.5 3.9-4.1 6.6-7.9 6.1h-.2c-3.5-.6-6.1-3.8-6-7.4v-72.4c0-3.9 3.2-7.1 7.1-7.1h.4c3.9.3 6.8 3.6 6.7 7.5v3.8c8.1-7.5 18.6-11.6 29.6-11.6h.9c3.9 0 7.1 3.2 7.1 7.1zM887.5 159v43.5c0 3.9-3.2 7.1-7.1 7.1-3.9 0-7.1-3.2-7.1-7.1V159c0-12.3-10-22.2-22.2-22.2-.5 0-1 0-1.5.1-11.8.8-20.7 11.1-20.7 22.9v42.7c0 3.9-3.2 7.1-7.1 7.1-3.9 0-7.1-3.2-7.1-7.1v-72.9c0-3.9 3.2-7.1 7.1-7.1 3.9 0 7.1 3.2 7.1 7.1v.7c5.8-4.7 13-7.4 20.4-7.7 20.1-1 37.1 14.5 38.2 34.5v1.9zM401.2 96.9v106.2c0 3.9-3.1 7-7 7s-7-3.1-7-7v-47.9H314v48c0 3.9-3.1 7-7 7s-7-3.1-7-7V96.9c0-3.9 3.1-7 7-7s7 3.1 7 7V143h73.1V96.9c0-3.9 3.1-7 7-7s7 3.1 7 7h.1zM704.7 162.3v40.1c0 3.9-3.2 7.1-7.1 7.1-3.9 0-7.1-3.2-7.1-7.1v-46.2c.3-11-8.4-20-19.4-20.3-11-.3-20 8.4-20.3 19.4v47.1c.1 3.9-2.9 7.2-6.8 7.4-3.9.1-7.2-2.9-7.4-6.8v-46.7c.3-11-8.4-20-19.4-20.3-11-.3-20 8.4-20.3 19.4v47.1c.1 3.9-2.9 7.2-6.8 7.4-3.9.1-7.2-2.9-7.4-6.8v-73.3c0-3.9 3.1-7.1 7-7.2 3.6 0 6.6 2.6 7.1 6.2 14.9-10.8 35.7-7.7 46.9 6.9 11.4-14.9 32.8-17.7 47.7-6.3 8.4 6.5 13.4 16.5 13.3 27.1v5.8zM974.3 132.8l-47.9 103.6c-2.1 3.4-6.5 4.5-9.9 2.5-2.9-1.7-4.2-5.3-3.1-8.5l12.9-27.9-32.3-69.7c-2.1-3.4-1-7.9 2.4-9.9s7.9-1 9.9 2.4c0 0 0 .1.1.1.3.4.5.9.6 1.3l27.1 58.6 27.1-58.6c1.3-3.8 5.3-5.8 9.1-4.6 3.8 1.3 5.8 5.3 4.6 9.1-.1.6-.3 1.1-.6 1.6z"/>
</svg>
